<svg width="33" height="31" viewBox="0 0 33 31" fill="none" xmlns="http://www.w3.org/2000/svg">
<path d="M7.82458 30.2446H1.11169V10.0728H7.82458V30.2446ZM24.307 9.59912C28.7248 9.59922 32.0365 12.4835 32.0365 18.6792V30.2446H25.3226V19.4526C25.3226 16.742 24.3516 14.8921 21.9213 14.8921C20.0668 14.8921 18.9623 16.139 18.4769 17.3433C18.2994 17.7749 18.2552 18.3771 18.2552 18.98V30.2446H11.5414C11.5419 30.1438 11.6296 11.9629 11.5414 10.0737H18.2552V12.9302C19.1463 11.5567 20.7427 9.59912 24.307 9.59912ZM4.51208 0.349121C6.80859 0.349121 8.22318 1.85494 8.26697 3.83252C8.26697 5.76936 6.80907 7.31982 4.46814 7.31982H4.42517C2.17131 7.31978 0.714233 5.76934 0.714233 3.83252C0.714468 1.85503 2.21576 0.349262 4.51208 0.349121Z" fill="#FEFEFE"/>
</svg>
